<svg width="1440" height="773" viewBox="0 0 1440 773" fill="none" xmlns="http://www.w3.org/2000/svg">
<path d="M145.393 99.2433C163.944 97.2813 211.779 77.4401 218.11 74.2757C268.762 45.7955 298.837 4.75246 369.718 11.8409C385.769 13.4547 439.365 24.4987 448.862 24.4987C512.177 24.4987 578.658 8.6764 632.476 49.8144C648.305 65.6367 667.299 71.9656 683.128 87.7879C702.123 103.61 727.449 106.775 749.609 100.446C816.09 71.9656 888.902 8.6764 964.88 49.8144C993.372 52.9789 1018.7 46.6499 1040.86 30.8276C1050.36 27.6632 1063.02 27.6632 1072.52 21.3342C1116.84 -10.3104 1170.65 -0.816989 1211.81 21.3342C1230.8 33.9921 1249.8 49.8144 1268.79 65.6367C1275.12 68.8012 1284.62 71.9656 1290.95 75.1301C1335.27 90.9524 1382.76 90.9524 1428.47 101.743M1457.44 118.198C1446.08 116.268 1436.58 113.104 1423.92 109.939C1404.92 109.939 1385.93 106.775 1366.93 106.775C1313.11 100.446 1268.79 68.8012 1221.31 37.1565C1205.48 27.6632 1189.65 18.1698 1170.65 11.8409C1129.5 2.34747 1091.51 15.0053 1053.52 30.8276C1025.03 46.6499 996.538 65.6367 961.715 59.3078C926.891 52.9789 892.068 37.1565 857.245 52.9789C816.09 71.9656 784.432 103.61 740.112 109.939C679.962 116.268 641.973 59.3078 591.321 33.9921C584.99 30.8276 575.493 27.6632 569.161 27.6632C496.349 24.4987 423.536 33.9921 350.724 21.3342C341.227 21.3342 334.895 21.3342 325.398 24.4987C265.248 52.9789 217.762 94.1169 154.447 113.104C148.115 113.104 138.618 113.104 131.685 114.211M1482.67 135.603C1471.24 132.28 1459.59 129.622 1447.88 127.439C1424.29 123.04 1400.43 120.508 1376.59 117.945C1353.51 115.445 1328.56 114.907 1306.78 106.268C1262.94 88.8322 1234.13 47.6309 1192.06 26.6505C1146.09 3.70819 1100.06 10.8282 1057.92 38.3907C1036.81 52.1877 1014.46 67.2189 988.845 69.972C962.253 72.82 935.977 65.7949 909.48 65.257C862.025 64.276 824.542 97.8826 783.198 116.047C737.199 136.236 693.385 118.768 656.061 89.2119C638.428 75.2567 623.834 56.3015 604.333 44.9728C585.781 34.182 564.159 30.6694 542.917 30.8593C519.997 31.0808 497.963 37.2515 475.233 38.5806C449.306 40.1311 423.473 36.7768 397.672 34.7832C371.839 32.7896 347.337 33.2326 322.327 40.6058C299.027 47.4727 277.025 58.1053 255.688 69.529C213.108 92.3131 168.06 126.268 117.566 124.97M1500.59 148.197C1452.44 132.09 1401.79 138.419 1351.13 132.09C1281.49 119.433 1243.5 56.1433 1186.52 27.6632C1116.87 -7.14591 1056.72 52.9789 993.404 75.1301C952.249 87.7879 907.929 68.8012 866.774 84.6235C838.282 97.2813 812.956 119.433 781.298 132.09C762.304 138.419 746.475 138.419 727.48 138.419C698.989 135.255 679.994 113.104 654.668 97.2813C651.502 94.1169 651.502 90.9524 648.337 87.7879C642.005 84.6235 635.674 78.2945 632.508 71.9656C610.347 52.9789 588.187 33.9921 556.53 30.8276C499.546 30.8276 439.397 40.321 382.413 40.321C366.584 40.321 347.59 43.4855 331.761 46.6499C274.777 62.4722 233.623 103.61 179.805 125.761C154.479 132.09 129.153 141.584 103.478 137.913M1506.54 154.242C1492.55 151.52 1478.46 149.337 1464.31 147.691C1412.04 141.647 1351.29 151.837 1303.9 124.844C1263.7 101.965 1238.47 61.0799 1200.76 35.0364C1179.61 20.4482 1155.21 11.9041 1129.34 15.0686C1102.97 18.2647 1078.91 31.3023 1056.56 44.9095C1033.89 58.7065 1011.51 73.8643 985.394 80.3514C959.15 86.9019 931.767 85.2564 905.428 90.984C857.403 101.427 818.464 135.571 770.661 146.109C722.51 156.742 682.02 130.761 650.616 96.775C620.984 64.719 589.992 27.0619 542.094 28.2644C513.634 28.9922 486.883 40.8906 458.771 44.1816C430.849 47.4094 402.579 44.6247 374.689 47.979C272.941 60.1305 198.229 161.963 91.5751 147.849M1517.94 164.4C1439.78 170.096 1344.8 182.753 1281.49 119.464C1243.5 81.4906 1211.84 27.6948 1158.02 18.2014C1120.03 8.70804 1085.21 24.5303 1053.55 46.6816L1044.06 56.175C1034.56 59.3394 1028.23 65.6683 1021.9 71.9973C1002.9 87.8196 980.741 94.1485 958.581 97.313C923.757 100.477 892.1 103.642 860.442 119.464C831.95 135.286 806.624 154.273 774.967 157.438C762.304 160.602 746.475 166.931 733.812 163.767C698.989 160.602 676.828 138.451 654.668 113.135C626.176 71.9973 597.684 21.3659 543.867 27.6948C486.883 34.0237 429.899 49.846 372.916 53.0105C347.59 56.175 322.264 68.8328 300.103 81.4907C296.938 84.6551 290.606 81.4906 287.44 84.6551C252.617 113.135 217.794 135.286 176.639 151.109C144.981 163.767 110.158 160.602 79.0703 156.109M1522.94 169.304C1433.44 170.096 1328.97 195.411 1265.66 116.3C1256.16 100.477 1243.5 87.8196 1230.84 75.1617C1227.67 71.9973 1227.67 65.6683 1224.5 62.5039C1205.51 46.6816 1189.68 30.8593 1167.52 21.3659C1104.21 2.37911 1059.88 56.175 1009.23 87.8196C996.57 97.313 983.907 100.477 971.244 100.477C907.929 113.135 854.111 141.615 797.127 166.931C774.967 176.424 749.641 179.589 724.315 173.26C717.983 170.096 708.486 166.931 702.154 163.767C695.823 160.602 689.491 157.438 683.16 151.109C632.508 106.806 600.85 24.5303 521.706 34.0237C493.215 37.1882 467.888 53.0105 439.397 59.3394C414.071 62.5039 385.579 62.5039 360.253 68.8328L331.761 78.3262C246.286 116.3 163.976 198.576 66.7239 166.172M1531.58 182.026C1474.6 189.082 1417.62 185.918 1360.63 185.918C1335.31 182.753 1313.15 170.096 1294.15 154.273C1240.33 106.806 1205.51 15.037 1120.03 30.8593C1113.7 34.0237 1104.21 37.1882 1097.87 40.3527C1063.05 59.3394 1034.56 87.8196 999.735 103.642C930.089 132.122 860.442 151.109 793.961 182.753C771.801 192.247 743.309 195.411 721.149 182.753C714.817 176.424 705.32 176.424 698.989 173.26C667.331 147.944 648.337 122.629 623.011 90.984C597.684 62.5039 566.027 37.1882 524.872 46.6816C474.22 59.3394 429.899 75.1617 379.247 78.3262C309.601 81.4907 255.783 138.451 192.468 170.096C182.97 173.26 176.639 176.424 170.307 179.589C132.318 195.411 91.1635 185.918 52.9529 172.532M1533.86 192.595C1503.09 195.411 1468.27 198.576 1436.61 201.74C1414.45 204.905 1392.29 201.74 1370.13 201.74L1332.14 192.247C1303.65 182.753 1284.65 163.767 1262.49 144.78C1256.16 138.451 1253 132.122 1249.83 125.793C1227.67 97.313 1205.51 71.9973 1173.85 56.175C1126.37 37.1882 1075.71 65.6683 1037.72 97.313C1018.73 109.971 996.57 122.629 974.409 128.958C914.26 144.78 857.276 160.602 800.293 185.918C755.972 204.905 698.989 201.74 664.165 163.767C623.011 119.464 585.021 59.3394 515.375 71.9973C471.054 81.4907 429.899 94.1485 385.579 94.1485C322.264 100.477 268.446 135.286 214.628 173.26C198.799 182.753 179.805 185.918 163.976 195.411C122.821 211.234 78.5005 195.411 39.815 181.203M1534.72 204.208C1487.26 195.411 1442.94 211.234 1398.62 214.398C1376.46 214.398 1351.13 217.563 1328.97 211.234C1284.65 195.411 1256.16 154.273 1224.5 119.464C1186.52 78.3262 1126.37 65.6683 1075.71 87.8196C1040.89 106.806 1006.07 125.793 968.078 138.451C907.929 160.602 844.613 170.096 784.464 189.082C743.309 217.562 683.16 204.905 651.502 166.931C629.342 147.944 604.016 128.958 578.69 113.135C543.867 97.313 509.043 106.806 474.22 113.135C423.568 119.464 372.916 116.3 322.264 128.958C293.772 138.451 268.446 154.273 239.954 170.096L230.457 179.589C214.628 189.082 201.965 195.411 186.136 204.905C135.484 230.22 75.3348 223.891 30.2544 188.576M1532.15 215.063C1477.76 211.234 1427.11 223.891 1373.29 236.549C1316.31 246.043 1268.82 211.234 1237.17 163.767C1221.34 144.78 1205.51 125.793 1183.35 116.3C1142.19 100.477 1097.87 109.971 1056.72 125.793C1028.23 138.451 999.735 151.109 968.078 157.438C885.768 173.26 803.459 173.26 733.812 217.563C702.154 220.727 670.497 214.398 642.005 195.411C626.176 179.589 610.347 166.931 591.353 154.273C585.021 151.109 575.524 147.944 569.193 147.944C499.546 144.78 429.899 135.286 360.253 144.78C296.938 154.273 246.286 182.753 195.633 220.727C182.97 227.056 170.307 233.385 157.644 236.549C106.992 255.536 59.506 223.891 18.5094 194.019M1527.69 226.898C1465.07 223.891 1404.92 255.536 1341.61 258.701C1290.95 258.701 1256.13 214.398 1221.31 179.589C1183.32 144.78 1135.83 135.286 1085.18 144.78C1044.02 154.273 1006.04 170.096 964.88 176.424C920.56 182.753 879.405 176.424 838.25 179.589C803.427 182.753 771.769 204.905 740.112 220.727C721.117 230.22 695.791 230.22 676.797 223.891C635.642 211.234 597.653 189.082 553.332 182.753C518.509 179.589 483.686 182.753 448.862 176.424C388.713 170.096 325.398 160.602 268.414 189.082C246.254 201.74 224.094 217.563 201.933 233.385C179.773 246.043 160.778 255.536 135.452 258.701C84.8003 261.865 40.4798 233.385 9.74029 199.81M1519.39 239.777C1505.65 239.302 1491.88 240.093 1478.27 241.992C1449.4 245.979 1421.32 254.808 1394.92 267.023C1373.29 277.023 1352.05 283.004 1328.09 278.542C1283.64 270.282 1248.5 235.442 1216.3 206.234C1208.39 199.05 1200.6 190.886 1191.93 184.652C1182.24 177.69 1167.96 172.627 1156.44 169.336C1127.73 161.109 1097.49 165.855 1068.88 171.773C1012.78 183.355 956.523 200.253 898.621 194.019C869.56 190.886 841.669 178.418 812.703 189.525C790.099 198.196 770.661 215.316 749.577 227.024C728.145 238.923 705.035 246.739 680.247 243.448C650.458 239.461 620.826 232.784 591.385 226.708C532.597 214.556 473.84 201.36 414.007 195.38C384.851 192.468 353.573 189.304 324.385 193.196C300.008 196.456 277.405 206.708 256.321 218.955C213.52 243.828 173.125 282.814 120.225 278.858C71.9474 275.219 29.5896 241.802 4.16856 202.183M-3.87246 206.455C30.9192 252.34 78.4056 302.971 141.721 293.478C154.384 290.313 167.047 287.149 176.544 283.985C208.202 264.998 233.528 246.011 265.185 227.024C271.517 223.86 281.014 220.695 287.345 217.531C312.671 208.037 341.163 204.873 369.655 208.037C474.125 227.024 569.098 261.833 673.568 261.833C689.396 264.998 705.225 261.833 717.888 255.504C724.22 252.34 733.717 249.175 740.048 242.847C771.706 211.202 809.695 185.886 854.016 195.38C929.994 214.366 1002.81 198.544 1078.78 189.051C1148.43 179.557 1205.41 211.202 1252.9 261.833C1278.23 287.149 1313.05 302.971 1351.04 296.642C1408.02 280.82 1455.51 246.011 1516.29 249.808M-8.84269 209.177C27.7851 252.34 65.7742 315.629 135.421 306.136C157.581 302.971 176.576 296.642 195.57 287.149C252.554 255.504 303.206 211.202 372.852 220.695C486.82 239.682 591.29 293.478 708.423 277.656C717.92 277.656 724.251 274.491 730.583 268.162C762.24 242.847 790.732 198.544 838.219 208.037C850.882 211.202 863.545 211.202 876.208 214.366C926.86 217.531 980.678 214.366 1031.33 211.202C1072.48 208.037 1110.47 195.38 1151.63 198.544C1176.95 201.709 1202.28 214.366 1221.27 233.353C1249.77 264.998 1281.42 302.971 1325.74 309.3C1344.74 312.465 1360.57 309.3 1376.4 302.971C1398.56 293.478 1417.55 283.985 1439.71 274.491C1449.21 271.327 1458.71 271.327 1468.2 264.998C1480.87 258.669 1496.7 261.833 1512.27 260.789M-21.9806 214.904C24.6194 265.029 84.7687 340.977 163.913 309.332C198.736 296.674 224.062 271.358 255.72 255.536C258.885 252.372 265.217 255.536 268.383 252.372C290.543 239.714 312.703 230.22 338.029 230.22C344.361 230.22 353.858 236.549 360.189 236.549C464.659 246.043 559.632 277.687 664.102 293.51C727.417 303.003 771.738 249.207 825.556 223.891C888.871 211.234 952.186 236.549 1015.5 230.22C1047.16 227.056 1078.82 220.727 1110.47 214.398C1145.3 211.234 1180.12 211.234 1208.61 233.385C1237.1 255.536 1256.1 280.852 1284.59 299.839C1322.58 321.99 1370.07 312.496 1408.05 293.51C1439.71 280.852 1477.7 268.194 1511.99 273.637M-37.5244 220.157C-35.4983 223.891 -29.1668 223.891 -26.0011 227.056C18.3195 268.194 56.3085 321.99 119.624 328.319C138.618 328.319 157.613 321.99 176.607 312.496C220.928 287.181 252.585 246.043 303.238 242.878C426.702 227.056 543.835 271.358 660.968 309.332C686.294 315.661 714.786 315.661 740.112 306.167C793.93 280.852 838.25 236.549 901.565 227.056C930.057 223.891 958.549 227.056 987.041 230.22C996.538 230.22 1006.04 236.549 1015.53 236.549C1085.18 239.714 1157.99 201.74 1221.31 249.207C1224.47 252.372 1224.47 255.536 1227.64 258.701C1233.97 265.029 1240.3 265.029 1246.63 271.358C1249.8 274.523 1249.8 277.687 1252.96 280.852C1278.29 303.003 1306.78 325.154 1344.77 315.661C1401.75 303.003 1452.41 265.029 1510.91 283.004M-66.4911 229.587C-48.1614 239.682 -32.3326 249.175 -16.5038 261.833C27.8168 302.971 84.8003 356.767 148.115 328.287C192.436 309.3 224.094 271.327 268.414 252.34C366.553 211.202 467.857 252.34 562.83 280.82C597.653 293.478 626.145 309.3 657.802 325.123C724.283 353.603 787.598 312.465 838.25 268.162C876.239 236.518 923.726 223.86 971.212 230.189C1012.37 236.518 1047.19 249.175 1088.34 246.011C1132.67 239.682 1180.15 233.353 1221.31 258.669C1246.63 274.491 1268.79 293.478 1294.12 306.136C1313.11 315.629 1332.11 312.465 1354.27 309.3C1408.09 296.642 1458.74 287.149 1512.49 295.06M-82.1933 253.891C-70.3217 258.669 -54.4929 261.833 -41.8299 271.327C-32.3326 280.82 -19.6696 283.985 -7.00655 293.478C30.9825 321.958 72.1373 350.438 119.624 344.109C182.939 331.451 220.928 283.985 271.58 252.34C296.906 239.682 322.232 236.518 350.724 239.682C398.21 249.175 442.531 274.491 490.017 277.656C521.675 277.656 550.166 277.656 578.658 293.478C638.808 328.287 698.957 391.576 771.769 344.109C835.084 299.807 879.405 217.531 964.88 230.189C999.704 233.353 1028.2 252.34 1059.85 255.504C1097.84 258.669 1139 249.175 1176.99 252.34C1221.31 255.504 1252.96 287.149 1290.95 306.136C1306.78 312.465 1322.61 315.629 1338.44 312.465C1398.59 299.807 1455.57 287.149 1513.16 302.971M1517.18 317.433C1501.89 311.927 1486.31 307.18 1470.29 304.237C1437.05 298.098 1406.28 302.085 1373.61 308.984C1340.81 315.914 1309.76 318.287 1278.64 303.668C1252.08 291.2 1228.33 272.055 1199.81 263.89C1168.85 255.03 1139.35 268.131 1108.73 271.485C1055.58 277.308 1011.42 240.378 960.29 234.144C906.187 227.531 869.18 264.713 837.554 303.256C807.479 339.901 769.078 392.177 715.166 386.102C661.728 380.089 626.208 327.812 582.584 302.022C554.788 285.598 525.41 285.409 494.164 283.542C462.982 281.674 435.218 271.422 406.251 260.536C377.126 249.618 347.273 241.074 315.869 245.568C284.306 250.093 257.682 267.498 232.989 286.643C208.835 305.376 185.756 326.388 158.467 340.597C129.849 355.47 98.5397 358.286 67.642 349.014C12.8111 332.559 -31.098 291.073 -87.4801 278.637M1525.73 332.844C1510.15 326.61 1494.35 320.787 1478.08 316.642C1444.43 308.066 1411.82 308.667 1377.95 315.344C1345.37 321.768 1312.67 325.376 1281.27 312.022C1253.57 300.25 1229.13 281.01 1199.53 273.763C1167.36 265.884 1139.66 281.516 1108.57 286.263C1053.49 294.649 1012.18 250.093 960.322 242.214C903.845 233.638 868.515 279.333 839.168 320.091C811.151 358.982 774.903 412.209 719.693 403.664C664.925 395.215 634.154 342.021 590.277 314.174C563.336 297.054 534.401 294.237 503.282 293.478C466.559 292.592 436.231 281.137 402.294 268.352C370.573 256.39 336.478 247.53 302.763 256.39C272.815 264.238 247.837 283.51 224.157 302.592C181.704 336.831 136.244 374.805 77.804 364.172C18.5411 353.381 -28.9136 311.041 -87.5117 298.13M1532.47 348.223C1503 337.749 1474.5 331.42 1446.01 325.091C1401.69 318.762 1357.37 337.749 1313.05 334.584C1275.06 328.255 1243.4 302.94 1208.58 287.117C1202.25 283.953 1192.75 283.953 1186.42 283.953C1148.43 287.117 1113.61 299.775 1075.62 296.611C1047.13 293.446 1024.97 280.788 999.64 268.131C961.651 249.144 914.165 249.144 882.507 280.788C841.353 325.091 819.192 385.216 762.209 410.531C692.562 439.011 645.076 366.229 591.258 328.255C572.263 315.598 553.269 306.104 531.109 306.104C483.622 306.104 439.302 296.611 394.981 277.624C347.495 258.637 293.677 261.802 252.522 293.446C192.373 344.078 119.56 404.202 37.2507 363.064C-3.90411 344.078 -41.8932 321.926 -87.5117 309.332M1538.52 365.026C1522.69 359.932 1506.83 354.932 1490.74 350.786C1459.81 342.844 1427.84 338.445 1395.9 341.483C1364.68 344.457 1333.6 350.85 1302.35 344.299C1273.16 338.192 1247.65 321.357 1220.07 310.693C1190.03 299.079 1163.69 301.326 1132.7 307.243C1103.38 312.844 1077.33 311.832 1048.77 303.098C1023.26 295.282 998.564 284.238 972.162 279.554C916.191 269.555 877.664 302.718 843.347 342.369C810.993 379.773 770.915 426.86 715.451 417.335C662.836 408.316 630.83 357.305 585.56 333.762C558.556 319.711 529.114 319.616 499.419 318.73C468.015 317.813 439.397 310.566 409.607 301.009C379.406 291.326 348.571 281.864 316.47 285.757C285.668 289.491 259.012 305.756 234.351 323.572C210.418 340.85 187.656 360.628 161.127 373.95C132.667 388.254 101.547 391.038 70.8077 382.906C14.9005 368.128 -30.8764 328.414 -87.5117 315.471M-87.5117 318.509C-38.7274 331.42 5.59316 363.064 49.9137 385.216C81.5713 397.874 116.395 404.202 151.218 391.545C182.875 375.722 211.367 356.736 243.025 334.584C274.682 315.598 309.506 302.94 347.495 306.104C410.81 315.598 467.794 334.584 531.109 334.584C559.6 334.584 588.092 340.913 610.253 359.9C632.413 378.887 654.573 391.545 676.733 407.367C755.877 451.669 819.192 378.887 876.176 334.584C904.668 309.269 939.491 299.775 977.48 306.104C1015.47 312.433 1050.29 328.255 1088.28 325.091C1116.77 325.091 1142.1 321.926 1170.59 321.926C1186.42 318.762 1205.41 321.926 1221.24 328.255C1256.07 344.078 1294.06 363.064 1332.04 359.9C1401.69 359.9 1471.34 356.736 1538.36 378.602M-87.4484 320.408C-73.4874 325.123 -60.8244 325.123 -51.3271 331.451C11.988 366.261 75.3031 426.385 151.281 401.07C189.27 388.412 224.094 369.425 262.083 347.274C312.735 321.958 366.553 331.451 423.536 340.945C474.188 347.274 524.84 337.78 572.327 353.603C594.487 363.096 613.482 372.589 635.642 385.247C641.973 391.576 648.305 394.741 657.802 397.905C692.625 423.221 733.78 432.714 771.769 420.056C778.101 416.892 787.598 413.727 793.93 410.563C809.758 401.07 822.421 391.576 838.25 378.918L885.737 350.438C920.56 337.78 952.217 328.287 990.206 334.616C1047.19 344.109 1097.84 347.274 1154.83 337.78C1173.82 334.616 1189.65 337.78 1205.48 340.945C1246.63 350.438 1284.62 375.754 1325.78 378.918C1395.42 378.918 1465.07 369.425 1533.93 391.26M-87.4484 328.255C-79.8189 331.483 -70.3217 331.483 -63.9902 334.648C2.49071 372.621 59.4743 435.91 141.784 429.581C186.105 423.252 224.094 404.266 265.248 385.279C296.906 372.621 328.564 372.621 360.221 369.457C423.536 369.457 483.686 366.292 547.001 372.621C578.658 375.786 607.15 391.608 635.642 401.101C641.973 404.266 651.471 410.595 657.802 413.759C721.117 442.239 790.764 435.91 854.079 410.595C901.565 391.608 952.217 385.279 1002.87 382.115C1015.53 382.115 1031.36 382.115 1044.02 378.95H1072.52C1101.01 372.621 1129.5 369.457 1157.99 375.786C1281.46 404.266 1398.59 413.759 1520.95 419.677M-87.4484 357.084C-57.6586 363.096 -29.1668 378.918 -3.84079 394.741C27.8168 420.056 59.4743 439.043 97.4634 448.536C113.292 454.865 129.121 458.03 148.115 454.865C157.613 451.701 163.944 451.701 173.442 451.701C220.928 439.043 262.083 410.563 309.569 404.234C395.044 394.741 477.354 388.412 562.83 397.905C575.493 397.905 588.156 407.398 600.819 410.563C654.636 435.879 708.454 467.523 771.769 451.701C888.902 426.385 999.704 410.563 1116.84 394.741C1129.5 394.741 1145.33 391.576 1157.99 394.741C1281.46 426.385 1398.59 445.372 1521.61 442.587M-67.6941 424.803C-10.1407 445.372 50.0087 464.359 106.992 489.674C176.639 489.674 243.12 458.03 312.766 442.208C404.573 423.221 496.38 385.247 588.187 413.727C642.005 445.372 692.657 492.839 762.304 480.181C879.437 454.865 980.741 423.221 1097.87 407.398C1123.2 404.234 1148.53 407.398 1173.85 407.398C1186.52 410.563 1199.18 410.563 1211.84 416.892C1275.16 448.536 1341.64 470.688 1411.28 464.359C1449.27 461.194 1487.26 451.701 1525.63 447.682M1525.98 447.049C1512.52 450.847 1499.29 455.403 1486.15 460.15C1436.61 478.124 1382.7 501.731 1328.91 489.453C1279.3 478.156 1242.26 439.834 1194.81 423.632C1139 404.55 1083.63 430.626 1028.32 439.201C971.465 448.03 914.355 453.188 859.967 473.188C811.974 490.814 761.069 515.212 708.961 500.212C662.931 486.985 631.115 448.821 590.213 426.259C539.846 398.475 484.509 411.386 435.06 434.233C409.132 446.195 383.838 459.802 356.137 467.333C328.089 474.96 298.869 477.017 270.82 484.706C243.721 492.143 219.123 506.098 192.721 515.37C165.907 524.8 137.51 526.73 109.43 522.996C53.9343 515.56 1.54098 491.573 -54.8728 489.738M1530.28 460.815C1506.22 470.719 1480.9 480.213 1458.74 492.871C1433.41 502.364 1411.25 515.022 1385.93 518.186C1322.61 527.68 1271.96 489.706 1230.8 448.568C1202.31 423.252 1164.32 423.252 1129.5 435.91C1069.35 454.897 1006.04 464.39 942.72 473.884C923.726 477.048 907.897 480.213 888.902 486.542C863.576 499.2 835.084 505.528 809.758 518.186C793.93 524.515 778.101 527.68 759.106 530.844C705.288 540.338 660.968 508.693 626.145 467.555C610.316 451.733 591.321 442.239 572.327 432.746C505.846 407.43 439.365 451.733 385.547 486.542C338.061 499.2 290.574 508.693 246.254 524.515C236.757 527.68 230.425 534.009 220.928 537.173C214.596 540.338 211.431 537.173 205.099 540.338C201.933 543.502 198.768 546.666 195.602 546.666C179.773 549.831 163.944 559.324 148.115 556.16C75.3031 540.338 8.82223 524.515 -60.6345 529.167M1534.65 495.276C1525.22 499.168 1518.89 499.168 1509.39 502.332C1449.24 530.812 1379.59 568.786 1313.11 543.47C1262.46 521.319 1221.31 477.017 1164.32 464.359H1142.16C1018.7 492.839 907.897 527.648 784.432 546.635C762.272 549.799 743.278 549.799 721.117 546.635C667.299 540.306 638.808 492.839 594.487 464.359C588.156 461.194 578.658 458.03 572.327 454.865C543.835 445.372 515.343 439.043 486.851 448.536C471.023 454.865 452.028 464.359 436.199 473.852C398.21 492.839 360.221 514.99 315.901 518.155C271.58 524.484 233.591 549.799 192.436 568.786C179.773 571.95 167.11 581.444 154.447 581.444C91.1319 587.773 37.314 556.128 -22.8353 549.799C-38.6641 546.635 -51.3271 540.306 -65.6047 543.692M1507.17 544.198C1493.31 548.312 1479.6 552.964 1465.89 557.647C1412.36 575.843 1355.6 593.216 1300.83 569.577C1255.24 549.894 1218.36 509.611 1167.74 502.079C1112.28 493.82 1060.39 524.895 1010.12 543.091C983.084 552.869 955.256 560.179 926.543 562.679C895.962 565.337 865.191 564.894 834.515 565.717C780.792 567.172 724.98 566.792 676.987 539.388C634.249 514.959 598.666 475.371 548.995 464.644C492.55 452.429 442.784 485.308 392.48 504.737C341.828 524.262 285.889 527.933 238.909 556.983C215.799 571.254 194.905 589.545 169.738 600.272C142.955 611.665 113.577 611.443 85.6868 604.45C32.8503 591.19 -13.3064 559.04 -66.9027 548.154M1482.7 586.823C1469.06 590.621 1455.45 594.576 1441.74 598.184C1385.96 612.835 1331.73 617.962 1279.18 590.083C1235.84 567.077 1195.44 531.92 1143.78 531.888C1090.05 531.857 1045.16 566.381 997.678 586.602C971.877 597.583 944.904 604.196 916.761 604.07C886.338 603.943 856.263 598.31 826.284 593.754C772.402 585.589 717.097 577.931 669.072 550.432C626.873 526.287 588.979 490.561 539.213 483.029C484.477 474.738 434.363 503.693 384.471 521.161C357.815 530.496 329.355 533.692 303.143 544.356C276.424 555.242 252.269 571.729 228.589 587.931C205.384 603.785 181.957 621.284 155.207 630.746C127.443 640.588 98.1915 638.024 70.871 628.088C21.3586 610.114 -19.6379 574.545 -69.7518 557.869M1488.4 606.633C1474.5 610.747 1460.7 615.082 1446.8 619.164C1393.05 634.86 1338.31 643.974 1286.36 617.519C1242.9 595.368 1204.84 557.457 1154.35 552.046C1100.15 546.223 1052.48 579.26 1005.72 601.222C980.773 612.93 954.813 621.569 927.145 623.341C897.545 625.24 867.913 621.759 838.472 619.164C785.952 614.513 731.406 610.62 682.78 588.501C636.338 567.362 596.07 532.11 544.721 522.68C487.991 512.269 433.413 536.382 379.564 550.147C352.053 557.172 323.467 560.242 296.843 570.558C270.947 580.621 247.742 596.19 224.632 611.348C201.458 626.569 177.937 642.74 151.281 651.284C123.391 660.239 94.0127 656.758 66.7872 647.17C16.7999 629.544 -25.5262 595.114 -76.6215 580.083M-77.6029 603.627C-64.0851 606.823 -51.4221 609.987 -38.7591 613.152C27.7218 644.796 100.534 679.605 173.347 654.29C280.982 578.343 417.11 575.178 546.906 587.836C556.403 587.836 565.9 591.001 575.398 594.165C664.039 635.303 755.846 660.619 853.984 641.632C901.47 632.139 942.625 622.645 986.946 609.987C1021.77 597.329 1053.43 581.507 1085.08 565.685C1110.41 556.191 1138.9 549.863 1164.23 559.356C1214.88 572.014 1243.37 613.152 1287.69 638.467C1357.34 676.441 1430.15 641.632 1492.45 615.62M-77.7612 628.816C-23.1836 634.923 27.8801 657.486 82.1411 665.429C139.156 673.783 192.246 657.707 243.911 634.67C294.563 612.076 355.567 617.772 408.72 627.772C465.166 638.404 520.662 653.34 576.727 665.619C631.843 677.675 685.249 685.428 741.695 678.846C795.829 672.549 848.317 657.233 900.616 642.645C927.429 635.145 954.845 629.354 981.532 621.443C1004.36 614.671 1025.38 602.804 1046.34 591.792C1066.72 581.064 1087.59 570.4 1110.22 565.337C1135.2 559.767 1163.22 564.103 1186.64 574.292C1208.64 583.849 1225.9 604.481 1243.72 619.924C1262.37 636.062 1282.31 651.125 1305.17 660.809C1357.02 682.738 1407.96 666.695 1456.55 644.385C1468.39 638.942 1480.11 633.278 1491.92 627.772M-70.7965 656.378C21.4852 679.542 119.624 708.022 211.431 673.213C230.425 663.72 246.254 663.72 265.248 654.226C315.901 635.24 376.05 638.404 426.702 663.72C543.835 692.2 667.299 736.502 790.764 698.529C866.742 676.378 939.554 651.062 1018.7 628.911C1025.03 625.746 1031.36 619.417 1037.69 616.253C1040.86 613.088 1047.19 616.253 1050.36 613.088C1107.34 568.786 1183.32 578.279 1233.97 625.746C1265.63 657.391 1300.45 692.2 1344.77 698.529C1398.59 701.693 1442.91 670.049 1488.84 648.594M-87.4484 323.002C-38.6641 337.78 -0.675038 366.261 43.6455 394.741C97.4634 429.55 157.613 420.056 208.265 394.741C227.259 385.247 243.088 375.754 262.083 369.425C347.558 331.451 436.199 353.603 524.84 359.932C565.995 359.932 603.984 372.589 638.808 394.741L648.305 404.234C702.123 435.879 762.272 435.879 816.09 410.563C828.753 404.234 838.25 397.905 850.913 391.576C876.239 382.083 901.565 372.589 926.891 366.261C1002.87 356.767 1078.85 359.932 1154.83 359.932C1173.82 359.932 1189.65 359.932 1208.64 366.261C1249.8 382.083 1294.12 388.412 1338.44 394.741C1401.75 401.07 1461.9 404.234 1523.95 405.5M-87.4484 338.002C-63.9902 340.945 -44.9956 356.767 -26.0011 366.261C30.9825 401.07 78.4688 448.536 148.115 442.208L186.105 432.714C306.403 375.754 436.199 375.754 565.995 394.741C626.145 401.07 679.962 442.208 740.112 445.372C759.106 445.372 778.101 442.208 797.095 439.043C914.228 416.892 1021.86 388.412 1135.83 382.083C1265.63 401.07 1392.26 435.879 1520.95 433.062M-78.2361 388.475C-26.0327 407.399 21.4536 432.714 72.1057 454.865C97.4317 467.523 122.758 477.017 148.084 470.688C281.046 435.879 410.842 388.412 546.969 401.07C556.466 401.07 565.964 404.234 575.461 407.398C632.444 426.385 679.931 473.852 743.246 470.688C784.401 467.523 825.556 458.03 866.71 445.372L885.705 435.879H904.699C911.031 432.714 920.528 429.55 926.86 429.55C971.18 426.385 1015.5 423.221 1059.82 410.563H1075.65C1113.64 401.07 1148.46 397.905 1186.45 404.234C1221.27 413.727 1252.93 426.385 1287.76 439.043C1366.9 461.194 1446.04 451.701 1523.76 445.562M-58.0069 458.694C-4.72721 464.96 43.2023 491.257 95.279 502.396C150.585 514.231 203.706 496.573 255.371 478.219C308.873 459.201 365.065 449.581 418.661 431.005C469.946 413.221 523.891 394.203 577.234 416.006C620.573 433.695 653.813 469.865 698.45 485.054C750.116 502.649 801.781 482.998 850.913 466.669C905.079 448.695 961.018 441.891 1017.21 433.474C1071.03 425.436 1127.82 405.437 1182.53 415.848C1232.55 425.373 1273.04 461.289 1322.26 473.757C1376.18 487.428 1431.45 470.055 1483.4 456.131C1496.7 452.587 1510.02 449.169 1523.51 446.321M1528.04 450.055C1455.48 483.377 1370 537.173 1287.69 483.377C1284.53 480.213 1278.2 483.377 1275.03 480.213C1230.71 451.733 1192.72 416.924 1138.9 423.252C1097.75 429.581 1062.92 445.404 1021.77 451.733C945.791 461.226 872.979 477.048 803.332 508.693C784.337 518.186 762.177 521.351 740.017 521.351C686.199 521.351 651.376 473.884 607.055 442.239C588.061 429.581 569.066 416.924 546.906 413.759C521.58 410.595 496.254 420.088 470.928 426.417C436.104 439.075 410.778 464.39 375.955 473.884C315.806 496.035 255.656 505.528 198.673 530.844C179.678 537.173 157.518 543.502 135.357 540.338C68.8766 527.68 8.72725 502.364 -56.2657 512.87M1532.15 476.257C1458.64 499.2 1385.83 559.324 1306.69 524.515C1256.04 499.2 1214.88 451.733 1157.9 448.568C1123.07 448.568 1091.42 461.226 1059.76 470.719C999.609 483.377 939.459 486.542 882.476 502.364C819.161 524.515 752.68 562.489 689.365 527.68C645.044 505.528 616.552 464.39 572.232 445.404C537.408 429.581 499.419 439.075 464.596 451.733C429.773 467.555 401.281 489.706 366.458 499.2C309.474 518.186 252.49 527.68 198.673 556.16C176.512 565.653 154.352 568.818 129.026 565.653C62.5451 552.995 2.39574 524.515 -63.9585 538.755M1528.45 517.775C1455.48 534.009 1389 587.804 1313.02 562.489C1281.36 549.831 1256.04 527.68 1224.38 505.528C1180.06 477.048 1126.24 477.048 1078.75 496.035C1062.92 505.528 1043.93 508.693 1028.1 511.857C971.117 534.009 914.133 546.666 853.984 556.16C815.995 562.489 778.006 565.653 740.017 559.324C689.365 549.831 648.21 518.186 613.387 483.377C569.066 445.404 508.917 445.404 458.265 470.719C432.939 483.377 404.447 496.035 379.121 508.693C347.463 521.351 309.474 521.351 274.651 534.009C236.662 549.831 205.004 578.311 167.015 587.804C84.7054 609.956 11.893 562.489 -65.0982 547.173M1482.77 570.432C1439.62 581.476 1395.3 600.462 1347.81 597.298C1290.83 590.969 1249.67 552.995 1199.02 527.68C1161.03 508.693 1116.71 515.022 1078.72 530.844C1053.39 543.502 1028.07 556.16 1002.74 565.653C980.583 575.147 955.257 584.64 933.096 584.64C841.289 584.64 743.151 590.969 660.841 537.173C619.686 508.693 581.697 477.048 531.045 470.719C474.062 467.555 423.41 499.2 372.758 518.186C353.763 524.515 337.934 524.515 318.94 530.844C268.288 546.666 230.298 581.476 185.978 606.791C176.481 609.956 170.149 613.12 160.652 616.285C87.8395 641.6 21.3586 587.804 -41.9565 559.324C-51.4538 556.16 -57.7853 556.16 -67.5675 551.445M1484.41 599.007C1426.95 613.12 1363.64 638.436 1306.66 613.12C1240.17 587.804 1176.86 524.515 1097.72 549.831C1056.56 565.653 1018.57 590.969 977.417 606.791C964.754 609.956 948.925 616.285 936.262 616.285H891.941C853.952 613.12 815.963 603.627 777.974 600.462C701.996 590.969 645.013 546.666 578.532 508.693C572.2 505.528 562.703 502.364 556.371 499.2C518.382 489.706 483.559 496.035 448.736 508.693C404.415 527.68 360.094 537.173 315.774 549.831C258.79 568.818 217.635 613.12 166.983 638.436C81.508 679.574 5.52984 597.298 -71.493 569.197M-76.3049 592.361C-57.7853 597.298 -41.9565 606.791 -22.962 616.285C34.0216 638.436 97.3368 676.409 160.652 654.258C268.288 584.64 398.084 543.502 527.88 552.995C550.04 556.16 575.366 559.324 597.526 571.982C705.162 628.942 825.461 641.6 945.759 625.778C961.588 622.614 974.251 619.449 986.914 613.12C1053.39 575.147 1129.37 527.68 1205.35 571.982C1262.33 606.791 1312.99 654.258 1385.8 644.765C1423.79 638.436 1455.45 625.778 1490.74 613.658M-77.7928 614.861C-70.4483 616.285 -67.2825 616.285 -60.951 616.285C-3.96743 641.6 53.0162 660.587 113.166 666.916C170.149 673.245 217.635 635.271 271.453 616.285C363.26 587.804 458.233 609.956 553.206 625.778C603.858 632.107 648.178 654.258 698.83 660.587C746.317 663.752 796.969 663.752 841.289 644.765C866.615 647.929 891.941 635.271 917.267 632.107C977.417 625.778 1031.23 594.133 1085.05 568.818C1129.37 546.666 1180.03 559.324 1218.01 587.804C1265.5 628.942 1312.99 673.245 1379.47 663.752C1420.62 657.423 1455.45 635.271 1491.66 620.272M-75.6718 642.296C-7.13318 657.423 62.5134 685.903 135.326 676.409C166.983 670.08 198.641 663.752 230.298 654.258C242.962 647.929 255.625 644.765 268.288 638.436C309.442 625.778 353.763 625.778 391.752 644.765C515.217 670.08 632.349 714.383 762.145 692.232C774.808 689.067 790.637 685.903 803.3 682.738C812.798 679.574 819.129 673.245 828.626 670.08C866.615 657.423 901.439 651.094 939.428 641.6C964.754 632.107 993.246 622.614 1018.57 613.12C1047.06 597.298 1075.56 587.804 1104.05 575.147C1142.04 562.489 1183.19 575.147 1214.85 600.462C1256 641.6 1303.49 695.396 1366.8 685.903C1411.13 679.574 1452.28 660.587 1491.06 637.202M-66.6177 669.226C15.1537 685.903 100.629 727.041 182.939 698.561C239.922 676.409 290.575 641.6 353.89 654.258C509.012 679.574 657.802 755.521 809.758 704.89C816.09 701.725 822.421 695.396 828.753 692.232C857.245 685.903 882.571 670.08 911.063 666.916C974.378 663.752 1031.36 635.271 1088.34 609.956C1129.5 594.133 1180.15 600.462 1214.98 632.107C1252.96 666.916 1287.79 704.89 1341.61 711.218H1379.59C1389.09 711.218 1395.42 708.054 1404.92 704.89C1427.08 692.232 1446.08 689.067 1468.24 673.245C1474.57 670.08 1480.9 666.916 1484.98 659.733M-65.8263 682.074C11.988 698.561 94.2976 746.028 173.442 711.218C227.259 689.067 281.077 654.258 341.227 657.423C439.365 657.423 528.006 704.89 626.145 723.876C638.808 727.041 654.636 730.205 667.299 733.37C698.957 736.534 730.615 736.534 762.272 730.205C812.924 717.547 857.245 692.232 911.063 685.903C971.212 673.245 1028.2 657.423 1082.01 632.107C1116.84 616.285 1151.66 622.614 1186.48 635.271C1227.64 654.258 1256.13 689.067 1294.12 711.218C1328.94 727.041 1370.1 723.876 1404.92 711.218C1430.25 698.561 1455.57 682.738 1481.66 664.005M-57.5637 695.871C18.3195 720.68 94.2976 758.654 173.442 727.009C214.596 708.022 252.585 682.707 293.74 666.884C350.724 647.898 407.707 663.72 461.525 685.871C477.354 692.2 496.349 692.2 515.343 698.529C581.824 720.68 648.305 739.667 721.117 749.16C736.946 752.325 755.941 749.16 771.769 742.831C831.919 727.009 885.737 701.693 949.052 685.871C952.217 685.871 958.549 679.542 961.715 679.542C1037.69 666.884 1113.67 628.911 1186.48 660.555C1243.47 682.707 1287.79 742.831 1357.43 733.338C1373.26 730.174 1389.09 727.009 1404.92 720.68C1430.25 704.858 1452.41 685.871 1480.49 668.498M-45.7237 713.718C2.49072 723.845 43.6455 745.996 94.2976 755.489C113.292 758.654 129.121 755.489 144.95 752.325C154.447 749.16 160.778 745.996 170.276 742.831C246.254 701.693 318.117 642.55 418.503 670.239C518.857 697.959 597.653 733.338 689.46 755.489C708.454 761.818 724.283 758.654 743.278 758.654C752.775 758.654 759.106 755.489 768.604 755.489C828.753 733.338 885.737 717.516 945.886 698.529C983.875 689.036 1021.86 685.871 1063.02 676.378C1094.68 670.049 1123.17 670.049 1154.83 676.378C1199.15 679.542 1233.97 701.693 1271.96 727.009C1313.11 752.325 1357.43 758.654 1398.59 733.338C1414.42 720.68 1433.41 714.351 1449.24 701.693C1455.57 695.364 1465.07 692.2 1471.72 682.074M-21.759 734.572C25.2842 752.958 75.2081 776.122 127.032 771.343C176.702 766.786 213.488 729.794 252.839 702.959C290.701 677.137 342.746 663.878 390.264 670.492C446.171 678.245 626.904 757.515 706.27 768.432C734.952 772.388 764.298 771.533 792.22 763.495C818.306 755.996 842.746 742.642 868.008 732.737C921.415 711.788 978.588 705.491 1035.29 699.731C1062.64 696.947 1090.69 688.877 1118.1 688.561C1142.61 688.244 1166.57 694.384 1189.24 703.307C1212.44 712.453 1234.44 724.319 1256.64 735.648C1277.78 746.407 1300.64 759.825 1324.48 762.957C1370.29 768.97 1409.23 735.996 1442.24 709.035C1450.92 701.947 1459.56 694.827 1468.52 688.118" stroke="url(#paint0_linear_105_559)" stroke-miterlimit="10"/>
<defs>
<linearGradient id="paint0_linear_105_559" x1="-88.0816" y1="386.481" x2="1539.09" y2="386.481" gradientUnits="userSpaceOnUse">
<stop stop-color="#3E0D9A" stop-opacity="0"/>
<stop offset="0.3" stop-color="#FF0098"/>
<stop offset="0.52" stop-color="#FFA93B"/>
<stop offset="0.61" stop-color="#FF5867"/>
<stop offset="0.68" stop-color="#FF188A"/>
<stop offset="0.72" stop-color="#FF0098"/>
<stop offset="0.74" stop-color="#E20198"/>
<stop offset="0.8" stop-color="#9C0699"/>
<stop offset="0.85" stop-color="#690A99"/>
<stop offset="0.89" stop-color="#490C99"/>
<stop offset="0.91" stop-color="#3E0D9A"/>
<stop offset="0.92" stop-color="#3C0A8E" stop-opacity="0.84"/>
<stop offset="0.95" stop-color="#390675" stop-opacity="0.48"/>
<stop offset="0.97" stop-color="#360263" stop-opacity="0.22"/>
<stop offset="0.99" stop-color="#350058" stop-opacity="0.06"/>
<stop offset="1" stop-color="#350054" stop-opacity="0"/>
</linearGradient>
</defs>
</svg>
